<svg xmlns="http://www.w3.org/2000/svg" viewBox="0 0 900 420"><defs><linearGradient id="g" x1="0" x2="1"><stop stop-color="#0f172a"/><stop offset="1" stop-color="#1e3a5f"/></linearGradient></defs><rect width="900" height="420" rx="36" fill="url(#g)"/><rect x="70" y="85" width="760" height="250" rx="22" fill="#111827" stroke="#60a5fa" stroke-width="5"/><g fill="#334155" stroke="#94a3b8" stroke-width="3"><rect x="95" y="110" width="120" height="200" rx="12"/><rect x="230" y="110" width="120" height="200" rx="12"/><rect x="365" y="110" width="120" height="200" rx="12"/><rect x="500" y="110" width="120" height="200" rx="12"/><rect x="635" y="110" width="170" height="200" rx="12"/></g><g font-family="Arial" font-weight="700" fill="#e2e8f0"><text x="120" y="150" font-size="26">FONTE</text><text x="264" y="150" font-size="26">CPU</text><text x="396" y="150" font-size="26">DI</text><text x="530" y="150" font-size="26">DO</text><text x="675" y="150" font-size="26">IHM / REDE</text></g><g fill="#4ade80"><circle cx="130" cy="190" r="10"/><circle cx="270" cy="190" r="10"/><circle cx="405" cy="190" r="10"/><circle cx="540" cy="190" r="10"/><circle cx="680" cy="190" r="10"/></g><g fill="#60a5fa"><rect x="390" y="220" width="70" height="12" rx="6"/><rect x="390" y="245" width="70" height="12" rx="6"/><rect x="525" y="220" width="70" height="12" rx="6"/><rect x="525" y="245" width="70" height="12" rx="6"/></g><text x="450" y="55" text-anchor="middle" font-family="Arial" font-size="32" font-weight="700" fill="#f8fafc">Arquitetura básica de um CLP</text></svg>