<svg xmlns="http://www.w3.org/2000/svg" viewBox="0 0 900 420"><rect width="900" height="420" rx="36" fill="#081426"/><text x="450" y="48" text-anchor="middle" font-family="Arial" font-size="31" font-weight="700" fill="#f8fafc">Exemplo visual em Ladder</text><g stroke="#94a3b8" stroke-width="6"><line x1="90" y1="80" x2="90" y2="360"/><line x1="810" y1="80" x2="810" y2="360"/></g><g stroke="#4ade80" stroke-width="6" fill="none"><line x1="90" y1="145" x2="230" y2="145"/><line x1="280" y1="145" x2="430" y2="145"/><line x1="480" y1="145" x2="700" y2="145"/><line x1="760" y1="145" x2="810" y2="145"/><line x1="90" y1="265" x2="230" y2="265"/><line x1="280" y1="265" x2="650" y2="265"/><line x1="710" y1="265" x2="810" y2="265"/></g><g stroke="#e2e8f0" stroke-width="5"><line x1="230" y1="115" x2="230" y2="175"/><line x1="280" y1="115" x2="280" y2="175"/><line x1="430" y1="115" x2="430" y2="175"/><line x1="480" y1="115" x2="480" y2="175"/><line x1="230" y1="235" x2="230" y2="295"/><line x1="280" y1="235" x2="280" y2="295"/></g><g fill="none" stroke="#e2e8f0" stroke-width="5"><path d="M700 115c40 0 40 60 0 60"/><path d="M760 115c-40 0-40 60 0 60"/><path d="M650 235c40 0 40 60 0 60"/><path d="M710 235c-40 0-40 60 0 60"/></g><g font-family="Arial" font-size="20" font-weight="700" fill="#cbd5e1"><text x="255" y="105" text-anchor="middle">I0.0 LIGA</text><text x="455" y="105" text-anchor="middle">I0.1 STOP</text><text x="730" y="105" text-anchor="middle">M0.0 SELO</text><text x="255" y="225" text-anchor="middle">M0.0</text><text x="680" y="225" text-anchor="middle">Q0.0 MOTOR</text></g></svg>