<svg xmlns="http://www.w3.org/2000/svg" viewBox="0 0 900 420"><rect width="900" height="420" rx="36" fill="#0b1325"/><text x="450" y="48" text-anchor="middle" font-family="Arial" font-size="31" font-weight="700" fill="#f8fafc">Linha automatizada — sensores, motor e cilindro</text><rect x="90" y="265" width="720" height="55" rx="20" fill="#334155"/><g fill="#64748b"><circle cx="150" cy="332" r="32"/><circle cx="290" cy="332" r="32"/><circle cx="430" cy="332" r="32"/><circle cx="570" cy="332" r="32"/><circle cx="710" cy="332" r="32"/></g><rect x="165" y="195" width="100" height="70" rx="8" fill="#b7794f" stroke="#f6ad78" stroke-width="4"/><rect x="675" y="120" width="110" height="80" rx="14" fill="#1e3a5f" stroke="#60a5fa" stroke-width="4"/><text x="730" y="165" text-anchor="middle" font-family="Arial" font-weight="700" font-size="24" fill="#e2e8f0">M1</text><path d="M730 200v45" stroke="#60a5fa" stroke-width="8"/><rect x="390" y="95" width="80" height="115" rx="14" fill="#164e63" stroke="#2dd4bf" stroke-width="4"/><rect x="410" y="185" width="40" height="80" rx="8" fill="#94a3b8"/><text x="430" y="135" text-anchor="middle" font-family="Arial" font-weight="700" font-size="20" fill="#ccfbf1">CIL</text><g fill="#4ade80" stroke="#bbf7d0" stroke-width="3"><rect x="125" y="125" width="28" height="75" rx="8"/><rect x="590" y="125" width="28" height="75" rx="8"/></g><g font-family="Arial" font-size="18" font-weight="700" fill="#e2e8f0"><text x="139" y="115" text-anchor="middle">S1</text><text x="604" y="115" text-anchor="middle">S2</text></g><path d="M153 162h80M618 162h70" stroke="#4ade80" stroke-width="5" stroke-dasharray="10 8"/></svg>